<svg xmlns="http://www.w3.org/2000/svg" width="512.000000pt" height="512.000000pt" viewBox="0 0 512.000000 512.000000" preserveAspectRatio="xMidYMid meet"><g transform="translate(0.000000,512.000000) scale(0.100000,-0.100000)" fill="#000000" stroke="none"><path d="M2370 5109 c-184 -21 -353 -70 -530 -155 -478 -229 -815 -660 -921 -1177 -28 -140 -38 -331 -39 -735 l0 -343 -24 -32 c-51 -68 -69 -119 -74 -204 l-5 -83 -132 0 c-74 0 -147 -5 -166 -12 -61 -20 -114 -64 -144 -120 -25 -45 -30 -64 -30 -123 1 -108 52 -190 144 -231 l41 -18 0 -638 c0 -568 -2 -638 -15 -638 -55 0 -143 -80 -164 -149 -14 -48 -14 -243 0 -295 14 -51 91 -128 145 -144 60 -18 4148 -18 4208 0 54 16 128 90 144 144 15 52 16 244 1 295 -21 69 -109 149 -164 149 -13 0 -15 70 -15 639 l0 639 30 10 c50 18 95 59 126 114 24 44 29 64 29 123 0 59 -5 79 -29 123 -58 105 -122 132 -312 132 l-134 0 0 65 c0 74 -26 152 -70 214 l-30 41 0 342 c-1 404 -11 595 -39 735 -161 785 -860 1351 -1656 1342 -55 -1 -134 -5 -175 -10z m484 -169 c539 -108 979 -496 1151 -1014 67 -203 68 -208 72 -692 l4 -441 -82 3 c-78 4 -93 8 -140 46 -14 12 -17 58 -22 373 -6 393 -14 467 -67 627 -121 360 -400 656 -745 789 -98 38 -158 37 -229 -5 -61 -36 -94 -88 -107 -167 -6 -38 -9 -244 -7 -497 l3 -434 28 -24 c35 -30 59 -30 94 0 l28 24 5 476 c5 460 6 476 25 490 29 22 55 20 127 -11 346 -149 594 -451 668 -811 18 -89 20 -138 20 -430 l0 -329 -57 -7 c-65 -7 -142 -40 -189 -79 -28 -24 -42 -27 -116 -30 -104 -5 -176 -35 -243 -102 -69 -68 -99 -141 -100 -237 l0 -78 -67 0 -68 0 -1 433 c0 307 -4 442 -12 467 -23 67 -111 67 -134 0 -8 -25 -12 -160 -12 -467 l-1 -433 -120 0 -120 0 0 1013 c0 605 -4 1036 -10 1071 -12 75 -47 127 -106 162 -71 42 -131 43 -229 5 -345 -133 -624 -429 -745 -789 -54 -160 -61 -234 -67 -629 l-6 -362 -37 -26 c-30 -21 -50 -26 -119 -29 l-82 -3 4 441 c3 373 6 453 21 516 152 657 652 1117 1313 1209 105 15 362 5 477 -19z m-596 -450 l22 -21 0 -1044 0 -1045 -67 0 -68 0 -1 78 c0 96 -31 170 -99 237 -67 67 -139 97 -243 102 -74 3 -88 6 -116 30 -47 39 -124 72 -189 79 l-58 7 4 366 c4 337 6 372 25 442 100 354 320 609 657 760 73 33 104 35 133 9z m-685 -1767 c96 -68 113 -75 200 -76 70 -2 89 -6 129 -29 71 -43 112 -138 92 -215 l-6 -23 -524 0 -524 0 -6 26 c-12 46 3 114 32 157 43 60 92 82 190 84 86 1 118 12 173 59 73 61 171 68 244 17z m2140 26 c21 -5 52 -23 70 -38 57 -50 93 -63 181 -64 98 -2 147 -24 190 -84 29 -43 44 -111 32 -157 l-6 -26 -524 0 -524 0 -6 23 c-10 39 -6 81 13 123 38 84 108 124 216 122 76 -1 110 11 176 64 57 46 112 57 182 37z m-3017 -550 c-3 -17 -6 -65 -6 -105 l0 -74 -86 0 c-84 0 -87 1 -120 34 -47 47 -47 95 0 142 34 34 35 34 126 34 l93 0 -7 -31z m1363 12 c27 -27 34 -75 29 -199 -3 -82 -9 -114 -23 -135 -38 -58 -27 -57 -602 -57 -512 0 -529 1 -561 20 -51 31 -62 71 -62 215 0 120 1 127 25 150 l24 25 576 0 c556 0 576 -1 594 -19z m830 -18 c-5 -21 -9 -68 -9 -105 l0 -68 -320 0 -320 0 0 68 c0 37 -4 84 -9 105 l-9 37 338 0 338 0 -9 -37z m1362 18 c23 -18 24 -27 27 -149 4 -149 -7 -189 -60 -222 -32 -19 -49 -20 -561 -20 -575 0 -564 -1 -602 57 -14 21 -20 53 -23 135 -5 124 2 172 29 199 18 18 38 19 593 19 550 0 575 -1 597 -19z m385 -15 c26 -26 34 -42 34 -71 0 -29 -8 -45 -34 -71 -33 -33 -36 -34 -120 -34 l-86 0 0 74 c0 40 -3 88 -6 105 l-6 31 92 0 c91 0 92 0 126 -34z m-3912 -375 c27 -51 95 -118 132 -127 22 -6 22 -11 26 -166 l3 -160 28 -24 c35 -30 59 -30 94 0 l28 24 3 151 4 151 119 0 119 0 0 -530 0 -530 -120 0 -120 0 -1 238 c0 156 -4 249 -12 272 -23 67 -111 67 -134 0 -8 -23 -12 -116 -12 -272 l-1 -238 -120 0 -120 0 0 630 0 630 30 0 c25 0 33 -7 54 -49z m1556 -581 l0 -630 -420 0 -420 0 0 530 0 530 283 0 c238 0 291 3 332 17 59 20 136 93 156 146 11 31 18 37 41 37 l28 0 0 -630z m400 0 l0 -630 -120 0 -120 0 0 630 0 630 120 0 120 0 0 -630z m229 593 c20 -53 97 -126 156 -146 41 -14 94 -17 332 -17 l283 0 0 -530 0 -530 -420 0 -420 0 0 630 0 630 28 0 c23 0 30 -6 41 -37z m1571 -593 l0 -630 -120 0 -120 0 0 539 0 539 23 6 c37 9 106 75 133 127 21 42 29 49 54 49 l30 0 0 -630z m-400 -100 l0 -530 -120 0 -120 0 0 530 0 530 120 0 120 0 0 -530z m565 -705 c23 -23 25 -31 25 -130 0 -99 -2 -107 -25 -130 l-24 -25 -2061 0 -2061 0 -24 25 c-23 23 -25 31 -25 130 0 99 2 107 25 130 l24 25 2061 0 2061 0 24 -25z"></path></g></svg>