<svg xmlns="http://www.w3.org/2000/svg" width="512.000000pt" height="512.000000pt" viewBox="0 0 512.000000 512.000000" preserveAspectRatio="xMidYMid meet"><metadata>
Created by potrace 1.16, written by Peter Selinger 2001-2019
</metadata><g transform="translate(0.000000,512.000000) scale(0.100000,-0.100000)" fill="#000000" stroke="none"><path d="M1780 4940 c-14 -14 -20 -33 -20 -61 0 -39 6 -48 97 -140 l97 -99 -97 -99 c-91 -92 -97 -101 -97 -140 0 -28 6 -47 20 -61 19 -19 33 -20 360 -20 l340 0 0 -120 0 -120 -180 0 c-237 0 -220 17 -220 -220 l0 -180 -160 0 -160 0 0 180 c0 239 20 220 -238 220 -193 0 -199 -1 -219 -22 -19 -20 -29 -82 -87 -550 -36 -290 -66 -532 -66 -537 0 -7 -53 -11 -155 -11 -173 0 -188 -5 -200 -72 -3 -18 -71 -546 -151 -1173 -79 -626 -146 -1140 -147 -1141 -1 0 -29 -18 -62 -39 -88 -55 -190 -141 -235 -198 -68 -85 -49 -167 39 -167 35 0 45 7 107 71 276 285 897 478 1769 550 209 17 734 14 955 -5 696 -62 1251 -213 1565 -426 38 -26 101 -80 139 -119 61 -63 73 -71 105 -71 49 0 81 33 81 82 0 62 -119 185 -275 283 -33 21 -61 39 -62 39 -1 1 -68 515 -147 1141 -80 627 -148 1155 -151 1173 -12 66 -27 72 -195 72 l-149 0 -6 33 c-3 17 -32 250 -65 517 -33 267 -62 495 -65 508 -3 12 -14 31 -25 42 -19 19 -34 20 -220 20 -260 0 -240 19 -240 -220 l0 -180 -160 0 -160 0 0 180 c0 167 -1 181 -20 200 -19 19 -33 20 -200 20 l-180 0 0 420 c0 407 -1 421 -20 440 -19 19 -33 20 -420 20 -387 0 -401 -1 -420 -20z m700 -300 l0 -160 -217 0 -216 0 56 59 c51 53 57 64 57 101 0 37 -6 48 -57 101 l-56 59 216 0 217 0 0 -160z m-880 -900 c0 -167 1 -181 20 -200 19 -19 33 -20 300 -20 267 0 281 1 300 20 19 19 20 33 20 200 l0 180 320 0 320 0 0 -180 c0 -167 1 -181 20 -200 19 -19 33 -20 300 -20 267 0 281 1 300 20 19 19 20 33 20 200 l0 180 85 0 c54 0 85 -4 85 -11 0 -15 109 -887 115 -921 l5 -28 -121 0 c-66 0 -129 -5 -139 -10 -30 -16 -40 -74 -40 -237 l0 -153 -315 0 -315 0 0 180 c0 167 -1 181 -20 200 -19 19 -33 20 -300 20 -267 0 -281 -1 -300 -20 -19 -19 -20 -33 -20 -200 l0 -180 -315 0 -315 0 0 148 c0 160 -9 220 -36 239 -12 9 -56 13 -136 13 -65 0 -118 3 -118 6 0 11 110 890 115 922 l6 32 79 0 80 0 0 -180z m-160 -1118 c0 -166 1 -180 20 -200 21 -22 21 -22 460 -22 427 0 441 1 460 20 19 19 20 33 20 200 l0 180 160 0 160 0 0 -180 c0 -167 1 -181 20 -200 19 -19 33 -20 460 -20 439 0 439 0 460 22 19 20 20 34 20 200 l0 178 242 -2 243 -3 132 -1030 c72 -566 133 -1046 136 -1067 l5 -36 -67 25 c-216 82 -519 165 -763 207 -151 27 -388 56 -450 56 l-38 0 0 373 c0 413 -1 423 -66 548 -64 122 -179 217 -317 264 -92 31 -240 35 -328 9 -189 -56 -337 -204 -393 -393 -13 -46 -16 -115 -16 -428 l0 -373 -37 0 c-21 0 -99 -7 -173 -15 -344 -39 -685 -119 -1012 -238 -95 -34 -98 -34 -93 -14 2 12 63 488 135 1057 72 569 133 1041 135 1048 3 9 61 12 245 12 l240 0 0 -178z m1283 -665 c72 -33 160 -120 192 -190 37 -80 45 -164 45 -497 l0 -305 -200 6 c-110 4 -290 4 -400 0 l-200 -6 0 305 c0 168 5 336 10 375 23 155 120 276 263 327 78 28 213 21 290 -15z"></path></g></svg>