<svg xmlns="http://www.w3.org/2000/svg" width="512.000000pt" height="512.000000pt" viewBox="0 0 512.000000 512.000000" preserveAspectRatio="xMidYMid meet"><g transform="translate(0.000000,512.000000) scale(0.100000,-0.100000)" fill="#000000" stroke="none"><path d="M2090 5109 c-25 -5 -82 -27 -126 -49 -102 -50 -188 -137 -236 -240 l-33 -70 -62 0 c-70 0 -162 -26 -226 -63 -59 -35 -140 -125 -168 -187 -17 -38 -29 -52 -48 -56 -70 -14 -132 -37 -169 -64 -55 -39 -108 -113 -127 -174 -23 -77 -20 -103 19 -142 l34 -34 1295 0 1295 0 30 25 c40 33 47 72 28 138 -44 152 -175 249 -338 251 l-67 1 -32 48 c-39 60 -99 109 -175 144 -52 25 -70 28 -162 28 -102 0 -103 0 -108 25 -46 209 -198 368 -395 415 -70 16 -158 18 -229 4z m221 -159 c82 -26 149 -76 195 -144 46 -70 64 -132 64 -223 0 -60 4 -77 20 -93 26 -26 70 -25 122 1 135 69 302 2 354 -142 26 -71 55 -89 115 -68 56 18 127 16 169 -6 33 -17 90 -72 90 -87 0 -5 -538 -8 -1195 -8 -657 0 -1195 2 -1195 5 0 18 39 59 77 81 32 19 60 27 106 29 77 3 93 9 105 43 5 15 17 48 26 73 48 134 207 216 350 180 34 -8 51 -8 70 0 28 13 32 20 52 99 56 208 270 325 475 260z"></path><path d="M3850 3938 c-351 -123 -645 -724 -701 -1433 -41 -522 96 -973 360 -1191 105 -87 244 -149 374 -168 l47 -7 0 -90 0 -89 -585 0 -585 0 0 205 c0 113 2 205 4 205 2 0 23 -7 46 -15 87 -31 163 -12 232 56 64 64 82 134 57 222 -16 61 -71 111 -200 184 l-118 68 -1 238 0 238 -25 24 c-19 20 -34 25 -75 25 l-50 0 0 100 0 100 55 0 c42 0 60 5 75 20 28 28 26 75 -5 105 l-24 25 -441 0 -440 0 0 140 0 140 26 0 c55 0 109 25 154 70 91 90 94 216 7 306 -33 34 -128 87 -452 256 -394 204 -413 213 -476 216 -63 4 -70 2 -180 -53 -63 -31 -124 -66 -136 -78 -47 -42 -16 -127 45 -127 14 0 71 25 127 55 59 31 116 55 133 55 35 0 808 -399 835 -431 9 -12 17 -32 17 -46 0 -30 -42 -73 -71 -73 -12 0 -186 86 -388 192 -201 105 -377 191 -391 191 -14 0 -190 -86 -392 -191 -201 -106 -376 -192 -388 -192 -30 0 -70 44 -70 78 0 40 24 58 185 141 77 40 146 80 153 89 22 28 15 78 -14 101 -15 12 -34 21 -43 21 -26 0 -329 -164 -363 -195 -65 -62 -86 -169 -49 -251 32 -71 126 -134 200 -134 l21 0 0 -574 0 -573 -125 -73 c-135 -78 -188 -127 -204 -187 -25 -88 -7 -158 57 -222 69 -68 145 -87 232 -56 23 8 44 15 46 15 2 0 4 -202 4 -449 l0 -449 -94 -4 c-83 -3 -100 -7 -142 -34 -30 -18 -60 -48 -79 -78 -26 -43 -30 -59 -30 -121 0 -62 4 -78 30 -121 19 -30 49 -60 79 -79 l49 -30 1494 -3 1494 -2 24 24 c32 32 32 70 0 101 l-24 25 -1471 0 -1472 0 -29 29 c-38 38 -38 74 0 112 l29 29 2352 0 2352 0 29 -29 c38 -38 38 -74 0 -112 l-29 -29 -734 0 c-725 0 -735 0 -756 -20 -30 -28 -30 -82 0 -110 22 -20 27 -20 778 -18 l757 3 49 30 c30 19 60 49 79 79 26 43 30 59 30 121 0 62 -4 78 -30 121 -42 68 -105 105 -189 111 l-66 6 0 222 c0 219 0 222 -23 243 -23 22 -28 22 -375 22 l-352 0 0 90 c0 64 4 92 13 94 6 2 44 10 82 19 214 51 409 221 519 452 90 189 127 364 133 642 7 275 -14 473 -77 723 -40 158 -107 350 -133 378 -46 49 -134 12 -123 -53 2 -16 27 -95 54 -175 98 -281 138 -556 129 -873 -6 -210 -21 -312 -67 -455 -68 -207 -200 -373 -360 -450 -47 -23 -104 -45 -128 -48 l-42 -7 2 429 3 429 50 3 c82 4 95 10 167 79 60 58 68 71 68 103 0 46 -25 70 -71 70 -28 0 -44 -9 -84 -50 -44 -45 -54 -50 -92 -50 l-43 0 0 345 c0 332 -1 346 -20 365 -25 25 -71 26 -100 2 -19 -15 -24 -31 -28 -95 -3 -49 -9 -77 -16 -77 -6 0 -36 25 -66 55 -62 63 -103 73 -140 33 -35 -38 -26 -73 38 -140 61 -64 115 -98 157 -98 l25 0 0 -370 0 -371 -87 3 -87 3 -57 94 c-61 102 -80 121 -116 121 -30 0 -73 -42 -73 -71 0 -28 110 -216 147 -251 41 -39 74 -48 179 -48 l94 0 0 -260 c0 -143 -4 -260 -8 -260 -25 0 -166 41 -199 58 -206 105 -347 333 -405 652 -30 166 -30 477 1 679 97 638 386 1131 662 1131 109 0 160 -28 286 -156 65 -67 120 -114 131 -114 11 0 31 9 46 21 45 35 36 75 -34 163 -75 93 -143 148 -240 194 -65 32 -85 37 -165 39 -74 3 -102 -1 -155 -19z m-2444 -680 l293 -153 1 -291 0 -291 -40 20 c-53 26 -118 32 -166 17 -22 -7 -249 -136 -505 -286 -256 -150 -473 -276 -482 -280 -16 -6 -17 32 -15 551 l3 556 295 154 c162 85 301 155 308 155 8 0 146 -69 308 -152z m674 -748 l0 -100 -96 0 c-132 0 -134 2 -134 104 0 45 3 86 7 89 3 4 55 7 115 7 l108 0 0 -100z m400 0 l0 -100 -125 0 -125 0 0 100 0 100 125 0 125 0 0 -100z m-230 -485 c371 -218 683 -405 693 -416 9 -12 17 -32 17 -46 0 -30 -42 -73 -72 -73 -13 0 -82 34 -153 76 -659 388 -1125 659 -1150 670 -27 11 -37 10 -70 -6 -22 -10 -317 -180 -655 -379 -338 -198 -625 -361 -638 -361 -30 0 -72 43 -72 73 0 14 8 34 18 45 9 12 121 81 247 155 127 74 430 252 675 396 245 144 454 261 465 261 12 0 324 -178 695 -395z m380 95 c0 -77 -2 -140 -4 -140 -3 0 -103 58 -223 128 -120 71 -227 134 -238 140 -15 9 36 11 223 12 l242 0 0 -140z m-544 -347 l524 -307 0 -498 0 -498 -550 0 -550 0 0 440 c0 484 0 484 -60 515 -43 22 -587 22 -630 0 -60 -31 -60 -31 -60 -515 l0 -440 -130 0 -130 0 0 498 0 498 332 194 c183 107 419 245 523 307 105 62 194 113 198 113 5 0 245 -138 533 -307z m-726 -893 l0 -410 -225 0 -225 0 0 410 0 410 225 0 225 0 0 -410z m3320 -240 l0 -170 -960 0 -960 0 0 170 0 170 960 0 960 0 0 -170z"></path><path d="M1020 3227 c-192 -54 -287 -266 -200 -443 54 -110 157 -174 280 -174 177 0 310 137 310 318 0 119 -75 235 -185 283 -57 25 -148 32 -205 16z m150 -159 c61 -31 90 -77 90 -143 0 -125 -127 -203 -239 -146 -120 62 -112 235 13 292 54 24 83 24 136 -3z"></path><path d="M1704 1421 c-52 -31 -55 -54 -52 -314 3 -234 3 -236 27 -261 14 -14 41 -30 60 -36 45 -12 512 -13 565 0 22 5 51 20 65 35 l26 25 3 240 c3 202 1 244 -13 269 -30 58 -45 61 -362 61 -264 0 -291 -2 -319 -19z m246 -301 l0 -170 -75 0 -75 0 0 170 0 170 75 0 75 0 0 -170z m300 0 l0 -170 -75 0 -75 0 0 170 0 170 75 0 75 0 0 -170z"></path></g></svg>