<svg xmlns="http://www.w3.org/2000/svg" width="512.000000pt" height="512.000000pt" viewBox="0 0 512.000000 512.000000" preserveAspectRatio="xMidYMid meet"><g transform="translate(0.000000,512.000000) scale(0.100000,-0.100000)" fill="#000000" stroke="none"><path d="M850 4958 l-20 -22 0 -2376 0 -2376 20 -22 21 -22 1688 0 1688 0 21 23 c22 23 22 30 22 306 l0 282 -25 24 c-31 32 -59 32 -90 0 l-25 -24 0 -236 0 -235 -275 0 -275 0 0 250 0 251 -25 24 -24 25 -254 0 -255 0 -11 46 c-40 159 -163 291 -321 344 -72 24 -199 29 -270 10 -166 -45 -309 -189 -351 -354 l-11 -46 -223 0 -224 0 -20 -26 c-20 -25 -21 -39 -21 -275 l0 -249 -310 0 -310 0 0 1105 0 1105 380 0 380 0 4 -22 c22 -117 32 -153 57 -216 117 -296 398 -499 719 -519 355 -22 689 190 819 519 25 63 35 99 57 216 l4 22 380 0 380 0 0 -305 0 -306 25 -24 c31 -32 59 -32 90 0 l25 24 0 1529 c0 1524 0 1528 -20 1550 l-21 22 -1689 0 -1689 0 -21 -22z m740 -367 c0 -236 1 -250 21 -275 l20 -26 224 0 c237 0 235 1 235 -49 0 -41 72 -165 129 -222 266 -266 719 -138 811 229 l11 42 255 0 255 0 24 25 25 24 0 251 0 250 275 0 275 0 0 -1105 0 -1105 -380 0 -380 0 -4 23 c-22 116 -31 151 -54 207 -87 223 -276 406 -495 481 -372 128 -775 -13 -979 -341 -66 -106 -91 -175 -124 -347 l-4 -23 -380 0 -380 0 0 1105 0 1105 310 0 310 0 0 -249z m1870 44 l0 -205 -865 0 -865 0 0 205 0 205 865 0 865 0 0 -205z m-566 -367 c-40 -132 -165 -237 -298 -253 -158 -20 -321 92 -370 253 l-7 22 341 0 341 0 -7 -22z m-115 -1053 c240 -81 421 -294 465 -547 l7 -38 -690 0 -690 0 6 38 c18 125 90 267 183 366 94 100 194 158 335 197 105 29 271 22 384 -16z m465 -762 c-55 -319 -322 -561 -639 -580 -357 -22 -667 225 -729 580 l-7 37 691 0 691 0 -7 -37z m-616 -1353 c126 -30 228 -124 266 -247 l7 -23 -341 0 -341 0 7 23 c26 85 103 180 173 214 83 39 155 50 229 33z m832 -615 l0 -205 -865 0 -865 0 0 205 0 205 865 0 865 0 0 -205z"></path><path d="M4203 1482 c-44 -7 -53 -37 -53 -168 0 -141 11 -167 70 -167 59 0 70 26 70 167 0 151 -15 179 -87 168z"></path></g></svg>