<svg xmlns="http://www.w3.org/2000/svg" width="512.000000pt" height="512.000000pt" viewBox="0 0 512.000000 512.000000" preserveAspectRatio="xMidYMid meet"><g transform="translate(0.000000,512.000000) scale(0.100000,-0.100000)" fill="#000000" stroke="none"><path d="M1795 5096 c-54 -25 -100 -71 -122 -123 -10 -26 -13 -171 -13 -756 l0 -723 25 -51 c44 -88 130 -133 252 -133 l53 0 0 -169 0 -169 -113 -3 c-106 -4 -116 -6 -150 -32 -20 -15 -42 -38 -49 -50 -9 -16 -14 -104 -18 -306 l-5 -284 -42 -12 c-101 -30 -203 -121 -251 -223 l-27 -57 -5 -515 c-5 -508 -5 -516 -27 -557 -85 -157 -303 -158 -384 -1 -18 36 -19 71 -19 838 l0 800 63 0 c75 0 122 21 154 69 23 33 23 39 23 335 0 280 -1 303 -20 333 -10 17 -28 36 -39 42 -18 10 -20 24 -23 248 l-3 238 -32 69 c-27 56 -58 94 -174 212 -78 78 -156 150 -174 158 -51 25 -105 20 -156 -12 -65 -42 -166 -155 -180 -201 -22 -73 -8 -103 105 -221 130 -136 136 -152 136 -341 0 -132 -1 -137 -24 -152 -52 -35 -56 -61 -56 -377 0 -321 1 -328 62 -371 24 -18 51 -25 108 -29 l75 -5 5 -820 5 -820 28 -57 c36 -73 119 -150 195 -179 79 -31 186 -31 267 1 82 32 173 122 206 205 23 60 23 62 29 577 l5 516 30 43 c33 47 88 94 123 104 22 6 22 6 22 -98 0 -91 3 -108 22 -137 45 -66 67 -75 194 -78 l114 -4 0 -506 0 -507 -46 -24 c-82 -44 -124 -126 -124 -243 l0 -58 -854 0 -853 0 -34 -23 c-18 -12 -44 -38 -57 -57 -22 -33 -23 -42 -20 -167 3 -143 10 -161 72 -207 26 -20 43 -21 319 -24 314 -3 328 -1 345 48 11 32 -7 84 -33 94 -9 3 -138 6 -286 6 l-269 0 0 90 0 90 2410 0 2410 0 0 -90 0 -90 -2013 0 c-2012 0 -2013 0 -2035 -20 -30 -28 -29 -80 1 -108 l23 -22 2036 2 2037 3 27 21 c64 47 69 63 69 214 0 154 -6 170 -75 218 -31 21 -42 22 -226 22 l-194 0 0 75 c0 42 -6 90 -14 109 -19 45 -79 111 -116 126 l-30 12 0 1253 0 1252 78 6 c115 7 180 47 228 137 18 33 19 74 22 744 3 792 4 780 -63 849 -76 78 24 72 -1153 75 l-1053 2 -24 -24 c-32 -32 -32 -70 0 -101 l24 -25 1031 0 1032 0 29 -29 29 -30 -2 -700 -3 -700 -23 -23 -23 -23 -1363 0 -1364 0 -26 24 -26 24 0 704 0 704 25 24 c24 25 25 25 230 25 205 0 206 0 230 25 14 13 25 36 25 50 0 14 -11 37 -25 50 -24 25 -24 25 -237 25 -202 0 -216 -1 -263 -24z m-1054 -1083 c69 -71 134 -146 144 -168 18 -35 20 -66 23 -252 l3 -213 -90 0 -91 0 0 133 c0 209 -24 270 -160 411 l-89 92 62 62 c34 34 64 62 68 62 3 0 62 -57 130 -127z m3569 -1618 l0 -915 -1085 0 -1085 0 0 915 0 915 1085 0 1085 0 0 -915z m-3320 580 l0 -255 -170 0 -170 0 0 255 0 255 170 0 170 0 0 -255z m998 -582 l2 -423 -90 0 -90 0 0 425 0 426 88 -3 87 -3 3 -422z m2320 -1325 l2 -258 -1085 0 -1085 0 0 260 0 260 1083 -2 1082 -3 3 -257z m137 -433 c22 -21 25 -33 25 -90 l0 -65 -1250 0 -1250 0 0 59 c0 49 4 65 26 90 l26 31 1199 0 1200 0 24 -25z"></path><path d="M3222 2280 c-67 -41 -72 -60 -72 -300 0 -240 5 -259 72 -300 31 -19 51 -20 411 -20 420 0 412 -1 464 67 l28 36 0 218 c0 242 -1 246 -75 297 -33 22 -35 22 -414 22 -363 0 -383 -1 -414 -20z m758 -300 l0 -170 -340 0 -340 0 0 170 0 170 340 0 340 0 0 -170z"></path><path d="M2085 4776 c-35 -15 -82 -67 -90 -99 -3 -12 -4 -228 -3 -479 3 -446 3 -457 24 -485 12 -15 36 -37 55 -48 33 -20 55 -20 1119 -23 761 -2 1100 0 1136 8 59 12 109 57 124 111 6 20 10 212 10 464 0 427 0 431 -22 475 -17 33 -35 51 -68 68 l-44 22 -1106 0 c-896 -1 -1111 -3 -1135 -14z m2220 -561 l0 -420 -1080 0 -1080 0 -3 423 -2 422 1082 -2 1083 -3 0 -420z"></path><path d="M2435 4453 c-35 -9 -87 -54 -101 -89 -9 -22 -14 -73 -14 -151 0 -134 12 -171 70 -210 32 -23 38 -23 335 -23 297 0 303 0 336 23 57 38 69 75 69 218 0 138 -9 166 -73 213 -27 20 -41 21 -315 23 -158 1 -296 -1 -307 -4z m545 -233 l0 -90 -255 0 -255 0 0 90 0 90 255 0 255 0 0 -90z"></path><path d="M3523 4450 c-46 -19 -57 -83 -20 -118 23 -21 30 -22 299 -22 253 0 278 2 299 18 33 27 30 78 -5 109 -27 23 -28 23 -289 22 -144 0 -272 -4 -284 -9z"></path><path d="M3855 4119 c-49 -28 -58 -70 -24 -113 20 -25 23 -26 138 -26 105 0 120 2 136 20 25 28 23 76 -4 103 -19 19 -34 22 -124 25 -63 1 -110 -2 -122 -9z"></path></g></svg>