<svg xmlns="http://www.w3.org/2000/svg" width="512.000000pt" height="512.000000pt" viewBox="0 0 512.000000 512.000000" preserveAspectRatio="xMidYMid meet"><g transform="translate(0.000000,512.000000) scale(0.100000,-0.100000)" fill="#000000" stroke="none"><path d="M1664 5110 c-48 -19 -54 -43 -54 -222 l0 -168 -359 0 c-210 0 -370 -4 -385 -10 -14 -5 -35 -24 -46 -42 -18 -29 -20 -51 -20 -190 l0 -158 -157 0 c-140 0 -162 -2 -191 -20 -18 -11 -37 -32 -42 -46 -6 -14 -10 -94 -10 -178 l0 -153 -88 -7 c-102 -9 -161 -32 -215 -84 -83 -80 -115 -196 -83 -304 19 -65 87 -148 147 -179 l39 -19 0 -1338 0 -1337 -51 -44 c-66 -56 -114 -131 -134 -206 -19 -73 -21 -311 -3 -350 26 -57 -18 -55 1047 -55 l981 0 32 29 33 29 0 164 c-1 146 -3 169 -24 221 -31 78 -92 152 -162 195 l-58 37 0 710 c-1 784 -1 782 62 917 84 181 225 306 422 374 72 26 93 28 215 28 119 0 144 -3 215 -27 219 -73 373 -227 456 -457 l24 -65 3 -740 3 -740 -54 -32 c-98 -59 -163 -152 -188 -271 -6 -29 -9 -111 -7 -183 l3 -131 33 -29 32 -29 981 0 c1065 0 1021 -2 1047 55 18 39 16 277 -3 350 -20 75 -68 150 -134 206 l-51 44 0 1337 0 1338 39 19 c60 31 128 114 147 179 32 108 0 224 -83 304 -54 52 -113 75 -215 84 l-88 7 0 153 c0 84 -4 164 -10 178 -5 14 -24 35 -42 46 -29 18 -51 20 -190 20 l-158 0 0 153 c0 167 -11 210 -60 234 -19 10 -118 13 -387 13 l-363 0 0 169 c0 165 -1 171 -24 198 l-24 28 -889 2 c-488 1 -898 -2 -909 -7z m1646 -290 l0 -100 -750 0 -750 0 0 100 0 100 750 0 750 0 0 -100z m810 -400 l0 -100 -1560 0 -1560 0 0 100 0 100 1560 0 1560 0 0 -100z m400 -400 l0 -100 -1960 0 -1960 0 0 100 0 100 1960 0 1960 0 0 -100z m357 -326 c37 -28 53 -86 32 -122 -8 -15 -30 -35 -49 -44 -33 -17 -163 -18 -2298 -18 -2459 0 -2310 -3 -2347 54 -12 18 -16 37 -12 62 7 45 30 71 71 83 18 6 982 9 2303 8 l2272 -2 28 -21z m-157 -884 l0 -500 -654 0 -653 0 -22 52 c-61 147 -202 314 -339 403 -367 236 -861 175 -1153 -143 -63 -69 -140 -186 -170 -259 l-21 -53 -654 0 -654 0 0 500 0 500 2160 0 2160 0 0 -500z m-3060 -850 l0 -150 -630 0 -630 0 0 150 0 150 630 0 630 0 0 -150z m3060 0 l0 -150 -630 0 -630 0 0 150 0 150 630 0 630 0 0 -150z m-3062 -807 l2 -453 -630 0 -630 0 0 455 0 455 628 -2 627 -3 3 -452z m3062 2 l0 -455 -630 0 -630 0 0 448 c0 247 3 452 7 455 3 4 287 7 630 7 l623 0 0 -455z m-2902 -688 c58 -38 84 -93 90 -189 l5 -78 -858 0 -857 0 3 84 c4 74 8 89 34 128 18 25 49 52 75 66 l45 22 711 -2 710 -3 42 -28z m2992 11 c26 -14 57 -41 75 -66 26 -39 30 -54 34 -128 l3 -84 -856 0 -856 0 0 58 c0 109 35 180 109 219 l44 23 701 0 702 0 44 -22z"></path><path d="M807 3096 c-148 -53 -235 -214 -194 -357 33 -111 119 -197 221 -219 33 -8 140 -10 301 -8 249 3 250 3 300 30 28 14 67 44 87 65 144 149 86 410 -108 483 -50 18 -77 20 -312 20 -190 -1 -267 -4 -295 -14z m564 -214 c23 -21 31 -37 32 -64 1 -42 -24 -85 -59 -98 -14 -6 -126 -10 -249 -10 l-225 0 -32 29 c-27 24 -33 36 -33 71 0 35 6 47 33 71 l32 29 235 0 235 0 31 -28z"></path><path d="M3705 3090 c-111 -44 -188 -158 -187 -280 0 -117 59 -211 167 -268 l50 -27 280 0 c271 0 281 1 326 23 224 110 234 418 18 537 l-54 30 -275 2 c-253 2 -279 1 -325 -17z m577 -209 c27 -24 33 -36 33 -71 0 -35 -6 -47 -33 -71 l-32 -29 -225 0 c-123 0 -235 4 -249 10 -35 13 -60 56 -59 98 1 27 9 43 32 64 l31 28 235 0 235 0 32 -29z"></path></g></svg>