<svg xmlns="http://www.w3.org/2000/svg" width="512.000000pt" height="512.000000pt" viewBox="0 0 512.000000 512.000000" preserveAspectRatio="xMidYMid meet"><g transform="translate(0.000000,512.000000) scale(0.100000,-0.100000)" fill="#000000" stroke="none"><path d="M2494 5086 c-37 -37 -43 -70 -20 -115 15 -28 53 -51 86 -51 51 0 100 49 100 99 0 34 -23 72 -51 87 -45 23 -78 17 -115 -20z"></path><path d="M2044 4989 c-207 -110 -397 -316 -484 -527 -65 -154 -83 -249 -84 -432 l-1 -165 -76 27 c-148 52 -337 61 -489 23 -96 -24 -256 -106 -331 -168 -125 -104 -216 -238 -270 -397 -29 -85 -33 -110 -36 -235 -4 -123 -2 -151 19 -231 l23 -91 -48 -54 c-102 -114 -186 -278 -235 -458 -22 -85 -25 -115 -25 -266 0 -151 3 -181 26 -267 94 -351 329 -625 654 -762 74 -32 203 -67 296 -81 l37 -6 0 -409 c0 -440 1 -450 51 -476 42 -21 75 -17 111 15 l33 29 3 421 c1 232 4 421 6 421 23 0 186 36 236 52 163 51 361 176 469 294 l51 56 64 -26 c87 -35 202 -64 305 -77 47 -6 92 -13 99 -15 9 -3 12 -122 12 -553 0 -405 3 -557 12 -576 13 -29 55 -55 88 -55 33 0 75 26 88 55 9 19 12 171 12 576 0 431 3 550 13 553 6 2 51 9 98 15 103 13 218 42 305 77 l64 26 43 -48 c54 -61 169 -152 257 -204 117 -69 258 -117 423 -145 l37 -6 0 -415 0 -416 34 -34 c37 -37 70 -43 115 -20 50 26 51 36 51 476 0 226 2 410 4 410 2 0 42 7 88 15 590 103 999 661 917 1251 -25 180 -101 369 -207 510 -32 43 -68 87 -79 96 -19 18 -19 18 5 110 21 82 23 110 19 233 -3 125 -7 150 -36 235 -54 159 -145 293 -270 397 -75 62 -235 144 -331 168 -152 38 -341 29 -489 -23 l-76 -27 -1 165 c-1 183 -19 278 -84 432 -72 174 -230 363 -393 472 -104 69 -150 89 -188 81 -40 -9 -79 -58 -79 -102 0 -43 30 -74 121 -123 83 -46 250 -211 302 -300 139 -240 164 -529 67 -779 -44 -113 -43 -116 56 -223 175 -189 279 -388 331 -632 24 -111 24 -361 0 -472 -94 -441 -394 -787 -807 -932 -78 -27 -196 -55 -277 -65 l-33 -4 0 268 0 267 72 17 c200 49 383 196 474 380 66 135 95 324 58 380 -24 37 -82 52 -122 31 -42 -22 -54 -46 -63 -136 -22 -217 -176 -402 -381 -458 l-38 -10 0 352 0 353 43 13 c77 23 141 62 203 124 92 92 144 210 144 327 0 73 -25 108 -86 116 -35 4 -46 1 -73 -23 -28 -25 -34 -39 -40 -95 -13 -100 -56 -173 -129 -220 -25 -16 -50 -29 -54 -29 -4 0 -8 148 -8 330 0 354 -2 370 -51 396 -52 27 -115 8 -137 -41 -9 -19 -12 -224 -12 -815 l0 -788 -37 10 c-206 56 -360 241 -382 458 -9 90 -21 114 -63 136 -40 21 -98 6 -122 -31 -37 -56 -8 -245 58 -380 91 -184 274 -331 474 -380 l72 -17 0 -267 0 -268 -32 4 c-546 67 -969 455 -1085 996 -24 112 -24 361 0 473 52 244 156 443 331 632 99 107 100 110 56 224 -105 271 -65 596 105 833 59 84 188 202 265 245 87 48 120 81 120 120 0 60 -45 110 -99 110 -10 0 -45 -14 -77 -31z m-790 -1264 c71 -15 175 -59 226 -95 l29 -21 -62 -77 c-199 -246 -308 -529 -323 -842 -25 -487 198 -948 598 -1238 88 -64 90 -55 -19 -142 -127 -103 -285 -176 -425 -198 l-58 -9 0 229 c0 243 -5 274 -49 298 -39 20 -91 12 -122 -19 l-29 -29 0 -241 0 -240 -37 6 c-187 29 -378 126 -514 262 -349 349 -358 911 -20 1273 96 103 98 109 59 216 -29 81 -32 96 -32 222 -1 113 3 146 21 205 100 316 432 509 757 440z m2951 -20 c105 -35 181 -82 258 -160 74 -75 130 -165 160 -260 18 -59 22 -92 21 -205 0 -126 -2 -141 -32 -222 -39 -106 -36 -115 51 -207 109 -116 187 -255 229 -409 31 -115 31 -335 0 -451 -73 -267 -242 -475 -489 -600 -62 -31 -195 -73 -265 -84 l-38 -6 0 240 0 241 -29 29 c-31 31 -83 39 -122 19 -44 -24 -49 -55 -49 -298 l0 -229 -57 9 c-141 22 -299 95 -426 198 -109 87 -107 78 -19 142 332 240 543 599 593 1008 15 121 5 326 -20 447 -51 237 -147 439 -298 625 l-62 77 29 21 c48 34 154 80 221 95 97 22 245 14 344 -20z"></path></g></svg>