<svg xmlns="http://www.w3.org/2000/svg" width="512.000000pt" height="512.000000pt" viewBox="0 0 512.000000 512.000000" preserveAspectRatio="xMidYMid meet"><metadata>
Created by potrace 1.16, written by Peter Selinger 2001-2019
</metadata><g transform="translate(0.000000,512.000000) scale(0.100000,-0.100000)" fill="#000000" stroke="none"><path d="M2360 5105 c-398 -89 -707 -419 -755 -808 l-7 -55 -167 -4 c-157 -3 -169 -5 -227 -31 -77 -36 -154 -113 -191 -192 -27 -59 -28 -65 -31 -267 l-4 -207 -346 -3 -347 -3 -67 -32 c-82 -39 -151 -106 -186 -181 l-27 -57 -3 -1580 c-2 -1563 -2 -1580 18 -1613 11 -18 34 -41 52 -52 33 -20 56 -20 2488 -20 2432 0 2455 0 2488 20 18 11 41 34 52 52 20 33 20 50 18 1613 l-3 1580 -27 57 c-35 75 -104 142 -186 181 l-67 32 -225 3 c-218 3 -226 3 -253 -18 -21 -17 -27 -30 -27 -59 0 -75 1 -75 252 -81 222 -5 223 -5 271 -33 59 -35 94 -86 107 -157 7 -36 9 -575 8 -1545 l-3 -1490 -412 -3 -413 -2 0 150 0 150 213 0 c237 0 256 5 297 72 18 30 20 51 20 268 0 217 -2 238 -20 268 -41 67 -60 72 -297 72 l-213 0 0 145 0 145 203 0 c193 0 206 1 247 23 76 40 80 57 80 326 0 267 -4 282 -84 320 -38 19 -60 21 -244 21 l-202 0 0 145 0 145 208 0 c196 0 209 2 246 23 71 41 76 60 76 326 0 267 -4 282 -84 320 -38 19 -60 21 -243 21 l-201 0 -4 423 c-4 410 -4 424 -26 478 -46 117 -127 193 -241 229 -51 16 -91 20 -206 20 l-143 0 -7 56 c-46 367 -325 686 -696 795 -97 28 -359 36 -459 14z m305 -150 c259 -25 520 -220 631 -471 86 -194 85 -454 -1 -648 -59 -132 -166 -259 -291 -344 -262 -177 -620 -178 -883 -4 -229 152 -361 397 -361 672 0 362 235 674 583 774 62 18 195 34 237 30 14 -2 52 -6 85 -9z m-1060 -931 c39 -311 256 -604 550 -740 143 -66 210 -79 405 -79 153 0 185 3 254 23 169 49 303 128 427 251 152 152 249 346 274 545 l7 56 137 0 c130 0 140 -1 192 -27 66 -34 105 -87 119 -162 6 -35 10 -702 10 -1897 l0 -1844 -295 0 -295 0 0 659 0 658 39 7 c86 13 119 96 108 271 -5 93 -22 132 -71 161 -30 18 -66 19 -906 19 -840 0 -876 -1 -906 -19 -17 -10 -39 -32 -49 -48 -21 -36 -31 -167 -20 -254 6 -49 13 -64 45 -96 27 -28 46 -38 69 -38 l31 0 0 -264 c0 -268 5 -307 38 -332 26 -20 73 -17 99 8 23 21 23 22 23 305 l0 283 295 0 295 0 0 -660 0 -660 -295 0 -295 0 0 239 0 240 -26 20 c-35 28 -67 26 -101 -3 l-28 -24 -3 -236 -3 -236 -295 0 -294 0 0 1868 c0 1310 3 1879 11 1906 14 50 83 123 134 141 27 9 85 14 176 15 l137 0 7 -56z m-625 -789 l0 -145 -202 0 c-184 0 -206 -2 -244 -21 -80 -38 -84 -53 -84 -320 0 -266 5 -285 76 -326 37 -21 50 -23 247 -23 l207 0 0 -145 0 -145 -202 0 c-184 0 -206 -2 -244 -21 -80 -38 -84 -53 -84 -320 0 -269 4 -286 80 -326 41 -22 54 -23 247 -23 l203 0 0 -145 0 -145 -212 0 c-238 0 -257 -5 -298 -72 -18 -30 -20 -51 -20 -268 0 -217 2 -238 20 -268 41 -67 60 -72 298 -72 l212 0 0 -150 0 -150 -412 2 -413 3 0 1525 0 1525 24 48 c12 26 38 59 57 73 66 51 86 53 427 54 l317 0 0 -145z m0 -490 l0 -185 -185 0 -185 0 0 185 0 185 185 0 185 0 0 -185z m3530 0 l0 -185 -185 0 -185 0 0 185 0 185 185 0 185 0 0 -185z m-3530 -980 l0 -185 -185 0 -185 0 0 185 0 185 185 0 185 0 0 -185z m3530 0 l0 -185 -185 0 -185 0 0 185 0 185 185 0 185 0 0 -185z m-1130 -65 l0 -70 -820 0 -820 0 0 70 0 70 820 0 820 0 0 -70z m-150 -890 l0 -660 -295 0 -295 0 0 660 0 660 295 0 295 0 0 -660z m-2250 -25 l0 -185 -185 0 -185 0 0 185 0 185 185 0 185 0 0 -185z m3530 0 l0 -185 -185 0 -185 0 0 185 0 185 185 0 185 0 0 -185z"></path><path d="M2392 4800 c-53 -33 -62 -68 -62 -250 l0 -160 -160 0 c-254 0 -270 -14 -270 -230 0 -216 16 -230 270 -230 l160 0 0 -160 c0 -254 14 -270 230 -270 216 0 230 16 230 270 l0 160 160 0 c254 0 270 14 270 230 0 216 -16 230 -270 230 l-160 0 0 160 c0 254 -14 270 -230 270 -118 0 -139 -3 -168 -20z m240 -320 l3 -190 28 -27 27 -28 190 -3 190 -3 0 -69 0 -69 -190 -3 -190 -3 -27 -28 -28 -27 -3 -190 -3 -190 -69 0 -69 0 -3 190 -3 190 -28 27 -27 28 -190 3 -190 3 0 69 0 69 190 3 190 3 27 28 28 27 3 190 3 190 69 0 69 0 3 -190z"></path><path d="M1503 2879 c-17 -11 -41 -39 -52 -63 -19 -39 -21 -61 -21 -262 0 -211 1 -220 23 -257 48 -79 34 -77 467 -77 367 0 387 1 418 20 18 11 41 34 52 52 18 30 20 51 20 268 0 217 -2 238 -20 268 -11 18 -34 41 -52 52 -31 19 -51 20 -418 20 -371 0 -386 -1 -417 -21z m755 -316 l2 -183 -335 0 -335 0 0 178 c0 98 3 182 7 185 4 4 153 6 332 5 l326 -3 3 -182z"></path><path d="M2782 2880 c-18 -11 -41 -34 -52 -52 -18 -30 -20 -51 -20 -268 0 -217 2 -238 20 -268 11 -18 34 -41 52 -52 31 -19 51 -20 414 -20 379 0 381 0 414 23 69 46 75 68 78 298 2 124 -1 222 -7 246 -6 21 -26 54 -46 73 l-36 35 -392 3 c-377 2 -393 2 -425 -18z m746 -317 l2 -183 -335 0 -335 0 0 178 c0 98 3 182 7 185 4 4 153 6 332 5 l326 -3 3 -182z"></path><path d="M2225 958 c-40 -21 -45 -39 -45 -146 0 -57 4 -111 10 -121 16 -31 65 -46 100 -31 44 18 50 37 50 149 0 116 -3 127 -41 146 -33 18 -47 18 -74 3z"></path><path d="M2825 958 c-40 -21 -45 -39 -45 -146 0 -57 4 -111 10 -121 16 -31 65 -46 100 -31 44 18 50 37 50 149 0 116 -3 127 -41 146 -33 18 -47 18 -74 3z"></path></g></svg>