<svg xmlns="http://www.w3.org/2000/svg" width="512.000000pt" height="512.000000pt" viewBox="0 0 512.000000 512.000000" preserveAspectRatio="xMidYMid meet"><g transform="translate(0.000000,512.000000) scale(0.100000,-0.100000)" fill="#000000" stroke="none"><path d="M2930 4756 c-355 -155 -655 -292 -667 -304 -22 -21 -23 -27 -23 -212 0 -189 0 -191 25 -215 32 -32 59 -31 140 5 37 17 69 30 71 30 2 0 4 -103 4 -230 l0 -230 -1095 0 -1096 0 -24 -25 c-24 -23 -25 -28 -25 -175 0 -147 1 -152 25 -175 23 -24 29 -25 160 -25 l135 0 0 -200 0 -200 -135 0 c-131 0 -137 -1 -160 -25 -24 -23 -25 -28 -25 -175 0 -147 1 -152 25 -175 20 -21 34 -25 80 -25 l55 0 0 -960 0 -960 -135 0 c-131 0 -137 -1 -160 -25 -24 -23 -25 -28 -25 -175 0 -147 1 -152 25 -175 l24 -25 2431 0 2431 0 24 25 c24 23 25 28 25 175 0 147 -1 152 -25 175 -23 24 -29 25 -160 25 l-135 0 0 960 0 960 55 0 c46 0 60 4 80 25 24 23 25 28 25 175 0 147 -1 152 -25 175 -20 21 -34 25 -80 25 l-55 0 0 630 c0 347 2 630 4 630 2 0 34 -13 71 -30 81 -36 108 -37 140 -5 25 24 25 26 25 213 0 166 -2 192 -17 211 -21 24 -1314 591 -1346 590 -12 0 -312 -128 -667 -283z m1261 -142 c321 -141 590 -258 597 -261 8 -3 12 -29 12 -78 l0 -73 -591 259 c-325 143 -598 259 -608 259 -14 0 -731 -310 -1143 -493 l-58 -26 0 73 0 73 593 261 c325 143 597 260 603 261 6 1 274 -114 595 -255z m-110 -272 l474 -207 3 -668 2 -667 -960 0 -960 0 2 667 3 667 470 207 c259 114 475 207 481 208 6 1 224 -92 485 -207z m-1601 -942 l0 -40 -1040 0 -1040 0 0 40 0 40 1040 0 1040 0 0 -40z m-1440 -400 l0 -200 -160 0 -160 0 0 200 0 200 160 0 160 0 0 -200z m480 0 l0 -200 -160 0 -160 0 0 200 0 200 160 0 160 0 0 -200z m480 0 l0 -200 -160 0 -160 0 0 200 0 200 160 0 160 0 0 -200z m480 0 l0 -200 -160 0 -160 0 0 200 0 200 160 0 160 0 0 -200z m2240 -400 l0 -40 -2160 0 -2160 0 0 40 0 40 2160 0 2160 0 0 -40z m-2240 -1160 l0 -960 -80 0 -80 0 0 560 c0 498 2 560 15 560 9 0 27 11 40 25 24 23 25 28 25 175 0 147 -1 152 -25 175 l-24 25 -831 0 -831 0 -24 -25 c-24 -23 -25 -28 -25 -175 0 -147 1 -152 25 -175 13 -14 31 -25 40 -25 13 0 15 -62 15 -560 l0 -560 -80 0 -80 0 0 960 0 960 960 0 960 0 0 -960z m2080 0 l0 -960 -480 0 -480 0 0 535 0 536 -25 24 -24 25 -391 0 -391 0 -24 -25 -25 -24 0 -536 0 -535 -40 0 -40 0 0 960 0 960 960 0 960 0 0 -960z m-2320 360 l0 -40 -720 0 -720 0 0 40 0 40 720 0 720 0 0 -40z m-80 -760 l0 -560 -640 0 -640 0 0 560 0 560 640 0 640 0 0 -560z m1280 -80 l0 -480 -280 0 -280 0 0 480 0 480 280 0 280 0 0 -480z m1440 -680 l0 -40 -2320 0 -2320 0 0 40 0 40 2320 0 2320 0 0 -40z"></path><path d="M2745 3975 l-25 -24 0 -311 0 -311 25 -24 24 -25 351 0 351 0 24 25 25 24 0 311 0 311 -25 24 -24 25 -351 0 -351 0 -24 -25z m615 -335 l0 -200 -240 0 -240 0 0 200 0 200 240 0 240 0 0 -200z"></path><path d="M3705 3975 l-25 -24 0 -311 0 -311 25 -24 24 -25 351 0 351 0 24 25 25 24 0 311 0 311 -25 24 -24 25 -351 0 -351 0 -24 -25z m615 -335 l0 -200 -240 0 -240 0 0 200 0 200 240 0 240 0 0 -200z"></path><path d="M3705 1575 l-25 -24 0 -311 0 -311 25 -24 24 -25 351 0 351 0 24 25 25 24 0 311 0 311 -25 24 -24 25 -351 0 -351 0 -24 -25z m615 -335 l0 -200 -240 0 -240 0 0 200 0 200 240 0 240 0 0 -200z"></path><path d="M3225 1095 c-24 -23 -25 -31 -25 -135 0 -104 1 -112 25 -135 15 -16 36 -25 55 -25 19 0 40 9 55 25 24 23 25 31 25 135 0 104 -1 112 -25 135 -15 16 -36 25 -55 25 -19 0 -40 -9 -55 -25z"></path></g></svg>