<svg xmlns="http://www.w3.org/2000/svg" width="512.000000pt" height="512.000000pt" viewBox="0 0 512.000000 512.000000" preserveAspectRatio="xMidYMid meet"><g transform="translate(0.000000,512.000000) scale(0.100000,-0.100000)" fill="#000000" stroke="none"><path d="M685 5095 c-25 -24 -25 -27 -25 -189 l0 -166 -27 -6 c-146 -32 -229 -73 -310 -154 -98 -98 -162 -225 -192 -377 -15 -75 -18 -83 -39 -83 -28 0 -62 -17 -79 -39 -9 -11 -12 -66 -13 -174 0 -155 1 -158 25 -182 15 -16 36 -25 55 -25 l30 0 0 -220 0 -220 -30 0 c-19 0 -40 -9 -55 -25 -24 -24 -25 -28 -25 -180 l0 -157 29 -29 c17 -17 40 -29 55 -29 l26 0 0 -1386 c0 -1431 -1 -1411 39 -1441 23 -18 4799 -18 4822 0 40 30 39 10 39 1441 l0 1386 26 0 c15 0 38 12 55 29 l29 29 0 157 c0 152 -1 156 -25 180 -15 16 -36 25 -55 25 l-30 0 0 220 0 220 30 0 c19 0 40 9 55 25 24 24 25 27 25 182 -1 108 -4 163 -13 174 -17 22 -51 39 -79 39 -21 0 -25 8 -41 83 -57 278 -230 474 -457 520 l-65 14 -5 172 c-5 167 -6 174 -29 192 -13 10 -36 19 -51 19 -15 0 -38 -9 -51 -19 -23 -18 -24 -25 -29 -192 l-5 -172 -65 -14 c-227 -46 -403 -248 -458 -525 l-15 -78 -44 0 c-47 0 -80 -13 -100 -39 -9 -11 -12 -66 -13 -174 0 -155 1 -158 25 -182 15 -16 36 -25 55 -25 l30 0 0 -80 0 -81 -52 39 c-234 172 -542 273 -908 298 l-100 7 0 156 0 157 71 11 c97 15 208 71 281 142 67 66 76 104 33 146 -39 40 -73 33 -141 -27 -91 -79 -150 -103 -259 -102 -116 0 -183 25 -263 99 -82 76 -114 145 -120 257 -5 104 11 167 65 246 59 87 41 152 -43 152 -37 0 -47 -5 -76 -40 -101 -117 -144 -316 -103 -475 38 -146 151 -284 285 -347 41 -20 83 -39 93 -42 16 -5 17 -20 15 -168 l-3 -163 -110 -8 c-193 -13 -430 -64 -585 -127 -93 -37 -229 -111 -306 -166 l-74 -53 0 84 0 85 30 0 c19 0 40 9 55 25 24 24 25 27 25 182 -1 108 -4 163 -13 174 -20 26 -53 39 -99 39 l-44 0 -23 100 c-60 269 -231 459 -454 504 l-62 13 -5 164 c-3 90 -9 171 -13 180 -9 19 -49 39 -78 39 -11 0 -31 -11 -44 -25z m151 -526 c188 -35 320 -185 360 -411 l6 -38 -462 0 -462 0 7 43 c11 67 50 173 85 227 97 151 265 216 466 179z m3662 -4 c76 -18 113 -36 171 -83 79 -64 148 -196 167 -319 l7 -43 -462 0 -462 0 7 38 c13 74 52 183 84 231 100 157 286 224 488 176z m-3138 -655 l0 -50 -600 0 -600 0 0 50 0 50 600 0 600 0 0 -50z m3600 0 l0 -50 -600 0 -600 0 0 50 0 50 600 0 600 0 0 -50z m-2146 -200 c608 -61 1013 -366 1160 -872 13 -46 27 -109 31 -141 l7 -57 -1447 0 -1447 0 7 43 c116 733 753 1120 1689 1027z m-1564 -171 l0 -161 -46 -59 -45 -59 -445 0 -444 0 0 220 0 220 490 0 490 0 0 -161z m3600 -59 l0 -220 -442 0 -443 0 -47 64 -48 64 0 156 0 156 490 0 490 0 0 -220z m-3803 -430 l-21 -50 -433 0 -433 0 0 50 0 50 454 0 454 0 -21 -50z m3913 0 l0 -50 -430 0 -431 0 -19 46 c-11 25 -20 48 -20 50 0 2 203 4 450 4 l450 0 0 -50z m-110 -1545 l0 -1345 -195 0 -195 0 0 920 c0 823 2 920 15 920 9 0 27 11 40 25 l25 24 0 271 0 271 -25 24 c-23 24 -28 25 -179 25 -153 0 -156 0 -160 23 -7 39 -26 167 -26 177 0 6 128 10 350 10 l350 0 0 -1345z m-3888 1258 c-7 -43 -16 -88 -18 -100 -4 -23 -7 -23 -160 -23 -151 0 -156 -1 -179 -25 l-25 -24 0 -271 0 -271 25 -24 c13 -14 31 -25 40 -25 13 0 15 -97 15 -920 l0 -920 -195 0 -195 0 0 1340 0 1340 353 0 353 0 -14 -77z m3418 -443 l0 -160 -1820 0 -1820 0 0 160 0 160 1820 0 1820 0 0 -160z m-80 -1240 l0 -920 -129 0 -129 0 -4 307 c-4 302 -5 310 -31 388 -34 103 -88 193 -157 265 -68 70 -156 130 -191 130 -38 0 -164 -93 -222 -165 -27 -33 -66 -96 -87 -140 -61 -126 -70 -192 -70 -510 l0 -275 -90 0 -90 0 0 434 c0 465 -5 530 -53 671 -69 201 -218 395 -389 506 -81 52 -106 51 -192 -7 -168 -113 -315 -306 -381 -499 -46 -136 -48 -160 -52 -642 l-5 -463 -108 0 -109 0 -3 313 -3 312 -29 84 c-33 94 -84 179 -153 252 -53 57 -156 129 -185 129 -38 0 -105 -45 -184 -124 -64 -64 -90 -99 -122 -166 -71 -144 -74 -168 -79 -502 l-5 -298 -114 0 -114 0 0 920 0 920 1740 0 1740 0 0 -920z m-1621 466 c85 -82 140 -159 186 -260 68 -149 69 -153 73 -663 l3 -463 -375 0 -376 0 0 409 c0 444 6 521 49 648 51 148 162 303 281 389 54 39 56 38 159 -60z m-1173 -539 c33 -34 71 -85 86 -113 52 -96 58 -143 58 -451 l0 -283 -221 0 -221 0 4 293 c4 284 4 294 29 363 14 39 43 97 64 128 38 58 109 126 131 126 6 0 38 -28 70 -63z m2224 6 c30 -32 70 -85 87 -119 56 -104 63 -157 63 -461 l0 -273 -220 0 -220 0 0 269 c0 147 5 293 10 322 16 83 70 187 135 257 31 34 64 62 73 62 9 0 41 -26 72 -57z"></path></g></svg>