<svg xmlns="http://www.w3.org/2000/svg" width="512.000000pt" height="512.000000pt" viewBox="0 0 512.000000 512.000000" preserveAspectRatio="xMidYMid meet"><g transform="translate(0.000000,512.000000) scale(0.100000,-0.100000)" fill="#000000" stroke="none"><path d="M3802 5055 c-35 -8 -103 -33 -150 -56 -71 -34 -103 -58 -173 -128 -70 -70 -94 -102 -127 -171 -45 -94 -72 -201 -72 -282 0 -51 -1 -54 -41 -76 -141 -81 -216 -220 -207 -387 8 -152 92 -277 234 -346 l69 -34 630 -3 c697 -3 711 -2 837 60 89 44 213 170 257 262 108 227 65 489 -110 665 -95 95 -223 157 -351 168 l-67 6 -51 68 c-65 88 -144 152 -245 201 -136 65 -290 84 -433 53z m313 -164 c113 -40 219 -128 276 -227 44 -78 51 -81 159 -86 81 -3 105 -8 163 -35 133 -63 225 -183 250 -327 36 -212 -104 -425 -317 -482 -40 -11 -175 -14 -656 -14 l-605 0 -50 24 c-95 44 -146 118 -153 224 -8 115 58 219 164 257 27 10 59 28 71 41 19 21 21 31 16 96 -15 209 97 408 281 498 44 22 101 45 126 50 70 14 207 5 275 -19z"></path><path d="M1437 4889 c-20 -5 -54 -17 -75 -28 -21 -11 -320 -304 -683 -668 -612 -613 -648 -651 -664 -702 -34 -104 -6 -212 73 -283 51 -46 69 -55 131 -69 l51 -11 0 -1464 0 -1464 -110 0 c-104 0 -112 -1 -135 -25 -32 -31 -32 -69 0 -101 l24 -24 2500 2 2501 3 32 33 33 32 3 188 c3 182 3 188 -20 222 -40 59 -45 60 -364 60 -343 0 -364 4 -448 81 -92 84 -166 208 -266 450 -29 68 -85 203 -126 299 -185 439 -361 661 -615 779 -130 60 -191 72 -386 78 l-173 6 0 423 0 424 28 6 c149 32 233 128 233 268 0 113 -10 126 -349 461 -245 241 -310 301 -334 303 -40 4 -78 -31 -78 -72 0 -26 40 -70 305 -336 304 -305 305 -306 305 -349 0 -70 -28 -107 -97 -126 -53 -15 -90 18 -655 582 -515 514 -559 556 -589 555 -29 -1 -88 -56 -593 -561 -420 -420 -569 -563 -594 -570 -97 -28 -185 78 -138 167 8 15 297 309 643 653 476 475 635 628 657 632 61 10 85 -7 327 -249 233 -232 237 -235 274 -232 49 4 81 42 71 85 -11 43 -467 496 -526 521 -56 25 -124 33 -173 21z m598 -1189 l535 -534 0 -638 0 -638 -274 0 -274 0 -4 237 c-4 227 -5 241 -30 307 -64 167 -194 288 -359 331 -79 22 -214 19 -291 -5 -125 -39 -257 -150 -313 -264 -48 -99 -55 -144 -55 -383 l0 -223 -275 0 -275 0 0 642 0 643 532 532 c293 293 536 532 540 531 4 -2 248 -244 543 -538z m-383 -1102 c75 -35 142 -104 181 -186 l32 -67 3 -227 4 -228 -376 0 -376 0 0 220 c0 198 2 225 21 275 38 103 131 195 228 229 74 25 211 18 283 -16z m1473 -498 c176 -55 327 -181 448 -371 70 -110 164 -310 265 -564 187 -469 342 -670 550 -714 31 -6 162 -11 317 -11 l265 0 0 -120 0 -120 -282 0 c-318 0 -377 8 -493 64 -140 67 -237 158 -348 326 -65 100 -135 246 -250 526 -156 379 -241 529 -361 641 -110 103 -200 133 -403 133 l-113 0 0 121 0 122 168 -6 c134 -4 181 -9 237 -27z m-2525 -1130 l0 -770 -90 0 -90 0 0 770 0 770 90 0 90 0 0 -770z m518 -2 l2 -768 -185 0 -185 0 0 770 0 770 183 -2 182 -3 3 -767z m600 630 l-3 -143 -222 -3 -223 -2 0 145 0 145 225 0 226 0 -3 -142z m512 -628 l0 -770 -180 0 -180 0 0 770 0 770 180 0 180 0 0 -770z m340 397 c5 -350 6 -369 24 -383 28 -20 69 -17 97 5 l24 19 3 367 3 367 137 -4 c160 -5 201 -18 281 -93 98 -91 182 -247 321 -590 177 -441 324 -683 493 -816 l49 -39 -641 0 -640 0 -3 266 c-3 266 -3 266 -27 285 -30 25 -72 24 -99 -1 -22 -20 -22 -26 -22 -285 l0 -265 -95 0 -95 0 0 763 c0 420 3 767 7 771 4 4 46 5 93 4 l85 -3 5 -368z m-850 -207 l0 -140 -225 0 -225 0 0 140 0 140 225 0 225 0 0 -140z m0 -430 l0 -140 -225 0 -225 0 0 140 0 140 225 0 225 0 0 -140z m0 -410 l0 -120 -225 0 -225 0 0 120 0 120 225 0 225 0 0 -120z"></path><path d="M1443 3669 c-106 -14 -204 -87 -252 -189 -35 -74 -37 -201 -4 -272 30 -66 96 -133 162 -165 49 -24 68 -28 146 -28 79 0 97 4 143 28 172 90 236 292 146 458 -67 122 -197 186 -341 168z m153 -176 c59 -38 92 -126 74 -193 -13 -49 -63 -108 -107 -126 -46 -20 -107 -17 -151 5 -46 23 -67 46 -87 94 -57 137 61 276 208 245 21 -5 49 -16 63 -25z"></path></g></svg>