<svg xmlns="http://www.w3.org/2000/svg" width="512.000000pt" height="512.000000pt" viewBox="0 0 512.000000 512.000000" preserveAspectRatio="xMidYMid meet"><g transform="translate(0.000000,512.000000) scale(0.100000,-0.100000)" fill="#000000" stroke="none"><path d="M846 5105 c-46 -16 -101 -67 -127 -117 -17 -34 -19 -61 -19 -331 l0 -295 -37 -7 c-54 -10 -117 -39 -174 -81 -39 -28 -91 -98 -269 -362 l-221 -327 3 -215 c3 -208 4 -217 29 -271 37 -79 90 -133 167 -171 57 -28 77 -33 142 -33 41 0 92 4 113 8 l37 8 0 -1006 c0 -992 0 -1005 20 -1025 33 -33 75 -30 107 6 l23 25 0 1045 0 1046 39 -31 c74 -58 126 -76 226 -76 106 1 159 21 230 86 l45 41 37 -36 c21 -20 63 -49 93 -64 47 -23 67 -27 145 -27 76 0 99 4 145 26 30 14 73 42 94 63 l39 37 36 -35 c20 -19 61 -47 91 -63 48 -24 67 -27 145 -28 77 0 98 4 146 26 31 15 74 43 96 63 l40 35 29 -30 c16 -16 58 -44 94 -62 57 -28 74 -32 150 -32 76 0 93 4 150 32 36 18 78 46 94 62 l29 30 40 -35 c22 -20 65 -48 96 -63 48 -22 69 -26 146 -26 78 1 97 4 145 28 30 16 71 44 91 63 l36 35 39 -37 c21 -20 64 -48 94 -63 47 -22 68 -26 145 -26 78 0 98 4 145 27 30 15 72 44 93 64 l37 36 45 -41 c71 -65 124 -85 230 -86 100 0 152 18 226 76 l39 31 0 -725 c0 -399 3 -733 6 -742 10 -26 63 -45 93 -34 52 20 50 -6 51 732 l0 688 23 -13 c13 -7 59 -13 112 -13 77 0 98 4 146 26 79 37 133 90 171 167 l33 66 3 216 3 215 -206 305 c-114 168 -227 326 -252 352 -54 55 -121 94 -191 109 l-52 11 0 291 c0 262 -2 296 -19 333 -23 49 -88 107 -140 122 -28 9 -468 12 -1707 12 -1394 -1 -1675 -3 -1708 -15z m3399 -160 c22 -22 25 -32 25 -105 l0 -80 -239 0 -240 0 -20 -26 c-27 -35 -26 -57 3 -91 l24 -28 236 -3 236 -3 0 -125 0 -124 -1710 0 -1710 0 0 125 0 125 1299 0 c922 0 1307 3 1330 11 53 19 68 77 31 117 l-21 22 -1319 0 -1320 0 0 84 c0 79 2 86 26 105 l27 21 1659 0 1659 0 24 -25z m-3384 -772 c-69 -135 -274 -519 -280 -526 -4 -4 -87 -6 -184 -5 l-177 3 155 230 c158 234 217 303 277 322 18 6 77 11 131 12 l97 1 -19 -37z m473 15 c-3 -12 -50 -139 -104 -282 l-98 -261 -192 -3 -191 -2 50 92 c27 51 86 163 131 248 121 229 122 230 293 230 117 0 118 0 111 -22z m461 -5 c-4 -16 -33 -142 -65 -281 -31 -139 -59 -255 -62 -257 -3 -3 -89 -4 -191 -3 l-185 3 69 185 c38 102 81 216 95 253 15 37 37 81 51 97 l25 30 135 0 135 0 -7 -27z m462 -5 c-3 -18 -14 -147 -23 -285 l-18 -253 -193 0 c-153 0 -193 3 -193 13 0 23 109 500 121 530 l11 27 150 0 150 0 -5 -32z m457 -20 c10 -85 36 -441 36 -481 l0 -37 -190 0 -190 0 0 38 c0 43 27 401 35 480 l6 52 149 0 149 0 5 -52z m455 20 c13 -37 121 -506 121 -525 0 -10 -45 -13 -193 -13 l-193 0 -18 253 c-9 138 -20 267 -23 285 l-5 32 150 0 150 0 11 -32z m444 2 c14 -16 36 -60 51 -97 14 -37 57 -151 95 -253 l69 -185 -185 -3 c-102 -1 -188 0 -191 3 -3 2 -31 118 -62 257 -32 139 -61 265 -65 281 l-7 27 135 0 135 0 25 -30z m425 16 c47 -24 67 -55 200 -309 l130 -247 -190 2 -190 3 -98 261 c-54 143 -101 270 -104 282 -7 22 -6 22 109 22 80 0 124 -4 143 -14z m423 2 c67 -20 112 -70 278 -318 l162 -240 -183 0 -183 1 -145 277 c-80 152 -146 280 -148 284 -6 12 177 9 219 -4z m-3911 -855 c0 -122 -4 -155 -19 -188 -65 -140 -255 -155 -346 -26 -30 42 -30 43 -33 202 l-4 159 201 0 201 0 0 -147z m548 -17 l-3 -164 -31 -39 c-93 -116 -262 -107 -335 20 -22 38 -24 55 -27 195 l-4 152 202 0 201 0 -3 -164z m560 12 c-4 -165 -10 -188 -65 -240 -85 -81 -211 -74 -290 15 -40 46 -53 107 -53 257 l0 120 206 0 206 0 -4 -152z m552 9 c0 -134 -2 -146 -26 -196 -74 -148 -279 -148 -354 0 -17 33 -20 59 -20 189 l0 150 200 0 200 0 0 -143z m550 -5 c0 -137 -2 -153 -23 -193 -13 -24 -43 -57 -66 -74 -37 -26 -51 -30 -111 -30 -60 0 -74 4 -111 30 -23 17 -53 50 -66 74 -21 40 -23 56 -23 193 l0 148 200 0 200 0 0 -148z m550 -2 c0 -130 -3 -156 -20 -189 -75 -148 -280 -148 -354 0 -24 50 -26 62 -26 196 l0 143 200 0 200 0 0 -150z m560 30 c0 -150 -13 -211 -53 -257 -79 -89 -205 -96 -290 -15 -55 52 -61 75 -65 240 l-4 152 206 0 206 0 0 -120z m548 -32 c-3 -139 -5 -157 -27 -195 -73 -127 -242 -137 -335 -20 l-31 39 -3 164 -3 164 201 0 202 0 -4 -152z m550 -7 c-3 -159 -3 -160 -33 -202 -91 -129 -281 -114 -346 26 -15 33 -19 66 -19 188 l0 147 201 0 201 0 -4 -159z"></path><path d="M995 2361 c-22 -10 -48 -28 -58 -39 -46 -52 -46 -45 -47 -989 l0 -893 -35 0 c-24 0 -45 -9 -67 -29 l-33 -29 -3 -116 -4 -116 -54 0 -54 0 0 224 c0 211 -1 225 -21 250 -27 34 -77 36 -107 3 -21 -23 -22 -31 -22 -250 l0 -227 -220 0 -221 0 -24 -25 c-32 -31 -32 -69 0 -100 l24 -25 2511 0 2511 0 24 25 c32 31 32 69 0 100 -21 22 -33 25 -95 25 l-70 0 0 783 c0 774 0 783 -20 805 -28 30 -74 29 -105 -3 l-25 -24 0 -496 0 -495 -220 0 c-239 0 -258 -3 -299 -56 -20 -25 -21 -38 -21 -270 l0 -244 -84 0 -84 0 5 39 c10 75 -70 119 -122 66 -14 -13 -25 -35 -25 -48 0 -27 -28 -57 -53 -57 -9 0 -26 9 -37 20 -19 19 -20 33 -20 365 l0 345 293 0 293 0 53 26 c63 32 104 84 121 155 17 72 9 155 -19 182 -21 21 -32 22 -248 27 l-227 5 -12 40 c-32 112 -108 207 -195 248 -27 12 -49 25 -49 29 0 21 -43 48 -75 48 -27 0 -39 -7 -56 -30 -13 -16 -37 -35 -56 -41 -46 -15 -134 -97 -165 -156 -15 -26 -32 -69 -38 -95 l-12 -48 -235 0 -234 0 -24 -25 c-23 -22 -25 -32 -25 -107 0 -59 6 -95 19 -124 22 -49 92 -111 140 -124 20 -5 163 -10 319 -10 l282 0 0 -348 c0 -338 -1 -349 -20 -367 -32 -29 -71 -10 -85 39 -12 41 -46 76 -75 76 -9 0 -29 -9 -44 -21 -21 -17 -26 -29 -26 -65 l0 -44 -69 0 -70 0 -3 238 c-4 343 7 332 -327 332 l-221 0 0 494 c0 484 0 494 -21 520 -28 36 -80 36 -108 0 -21 -26 -21 -33 -21 -805 l0 -779 -144 0 -144 0 -4 111 -3 111 -37 34 c-28 25 -47 34 -73 34 l-35 0 0 540 0 541 -25 24 c-13 14 -36 25 -50 25 -14 0 -37 -11 -50 -25 l-25 -24 0 -541 0 -540 -472 2 -473 3 -3 870 c-1 479 0 880 3 893 l5 22 468 -2 467 -3 5 -208 c5 -205 5 -209 29 -228 32 -26 67 -24 96 6 25 24 25 24 25 234 0 123 -4 221 -11 238 -15 42 -68 92 -109 103 -21 6 -228 10 -510 10 -440 0 -478 -2 -515 -19z m2823 -935 c38 -20 78 -65 96 -108 9 -21 16 -40 16 -43 0 -3 -77 -5 -171 -5 l-171 0 6 32 c20 100 141 167 224 124z m622 -317 c0 -16 -21 -53 -39 -66 -12 -9 -168 -12 -654 -13 l-638 0 -24 25 c-14 13 -25 33 -25 45 0 20 2 20 690 20 482 0 690 -3 690 -11z m-1310 -749 l0 -210 -200 0 -200 0 0 210 0 210 200 0 200 0 0 -210z m1650 0 l0 -210 -195 0 -195 0 0 210 0 210 195 0 195 0 0 -210z m-2640 -140 l0 -70 -620 0 -620 0 0 70 0 70 620 0 620 0 0 -70z"></path><path d="M1735 1365 c-14 -13 -25 -36 -25 -50 0 -14 11 -37 25 -50 13 -14 36 -25 50 -25 14 0 37 11 50 25 14 13 25 36 25 50 0 14 -11 37 -25 50 -13 14 -36 25 -50 25 -14 0 -37 -11 -50 -25z"></path></g></svg>