<svg xmlns="http://www.w3.org/2000/svg" width="512.000000pt" height="512.000000pt" viewBox="0 0 512.000000 512.000000" preserveAspectRatio="xMidYMid meet"><g transform="translate(0.000000,512.000000) scale(0.100000,-0.100000)" fill="#000000" stroke="none"><path d="M2517 5109 c-45 -26 -47 -50 -47 -568 l0 -490 -455 -331 c-250 -182 -458 -336 -462 -343 -4 -6 -10 -77 -13 -157 l-5 -145 -735 -2 c-519 -2 -741 -6 -756 -14 -12 -6 -27 -22 -33 -36 -8 -17 -11 -438 -11 -1494 l0 -1471 29 -29 29 -29 2502 0 2502 0 29 29 29 29 0 1471 c0 1056 -3 1477 -11 1494 -6 14 -21 30 -33 36 -15 8 -237 12 -756 14 l-735 2 -5 145 c-3 80 -9 151 -13 157 -4 7 -212 161 -462 343 l-455 331 0 149 0 149 485 3 484 3 23 23 c23 22 23 27 26 295 2 149 0 282 -3 295 -3 12 -14 31 -25 42 -19 19 -35 20 -505 20 l-485 0 -14 34 c-21 52 -74 71 -119 45z m983 -419 l0 -170 -425 0 -425 0 0 170 0 170 425 0 425 0 0 -170z m-504 -1101 l414 -302 0 -1558 0 -1559 -170 0 -170 0 0 485 0 486 -25 24 -24 25 -461 0 -461 0 -24 -25 -25 -24 0 -486 0 -485 -170 0 -170 0 0 1559 0 1558 422 307 c239 174 428 304 435 301 8 -2 201 -140 429 -306z m-1456 -2054 l0 -1365 -685 0 -685 0 0 1365 0 1365 685 0 685 0 0 -1365z m3410 0 l0 -1365 -685 0 -685 0 0 1365 0 1365 685 0 685 0 0 -1365z m-2050 -940 l0 -425 -340 0 -340 0 0 425 0 425 340 0 340 0 0 -425z"></path><path d="M2485 3154 c-239 -37 -432 -206 -501 -439 -24 -80 -24 -229 0 -310 60 -205 216 -361 421 -421 81 -24 230 -24 310 0 206 61 360 215 421 421 24 81 24 229 0 310 -60 203 -216 360 -415 419 -57 17 -185 27 -236 20z m195 -186 c200 -60 329 -262 300 -469 -26 -182 -177 -333 -359 -359 -279 -39 -520 202 -481 481 36 252 297 420 540 347z"></path><path d="M2470 2775 l0 -124 -82 -3 -83 -3 0 -85 0 -85 170 0 170 0 3 213 2 212 -90 0 -90 0 0 -125z"></path><path d="M430 2560 l0 -90 168 2 167 3 0 85 0 85 -167 3 -168 2 0 -90z"></path><path d="M940 2560 l0 -90 170 0 170 0 0 90 0 90 -170 0 -170 0 0 -90z"></path><path d="M430 2215 l0 -85 170 0 170 0 0 85 0 85 -170 0 -170 0 0 -85z"></path><path d="M940 2215 l0 -85 170 0 170 0 0 85 0 85 -170 0 -170 0 0 -85z"></path><path d="M430 1875 l0 -85 170 0 170 0 0 85 0 85 -170 0 -170 0 0 -85z"></path><path d="M940 1875 l0 -85 170 0 170 0 0 85 0 85 -170 0 -170 0 0 -85z"></path><path d="M430 1535 l0 -85 170 0 170 0 0 85 0 85 -170 0 -170 0 0 -85z"></path><path d="M940 1535 l0 -85 170 0 170 0 0 85 0 85 -170 0 -170 0 0 -85z"></path><path d="M430 1195 l0 -85 170 0 170 0 0 85 0 85 -170 0 -170 0 0 -85z"></path><path d="M940 1195 l0 -85 170 0 170 0 0 85 0 85 -170 0 -170 0 0 -85z"></path><path d="M3840 2560 l0 -90 170 0 170 0 0 90 0 90 -170 0 -170 0 0 -90z"></path><path d="M4354 2637 c-3 -8 -4 -47 -2 -88 l3 -74 168 -3 167 -2 0 90 0 90 -165 0 c-129 0 -167 -3 -171 -13z"></path><path d="M3840 2215 l0 -85 170 0 170 0 0 85 0 85 -170 0 -170 0 0 -85z"></path><path d="M4350 2215 l0 -85 170 0 170 0 0 85 0 85 -170 0 -170 0 0 -85z"></path><path d="M3840 1875 l0 -85 170 0 170 0 0 85 0 85 -170 0 -170 0 0 -85z"></path><path d="M4350 1875 l0 -85 170 0 170 0 0 85 0 85 -170 0 -170 0 0 -85z"></path><path d="M3840 1535 l0 -85 170 0 170 0 0 85 0 85 -170 0 -170 0 0 -85z"></path><path d="M4350 1535 l0 -85 170 0 170 0 0 85 0 85 -170 0 -170 0 0 -85z"></path><path d="M3840 1195 l0 -85 170 0 170 0 0 85 0 85 -170 0 -170 0 0 -85z"></path><path d="M4350 1195 l0 -85 170 0 170 0 0 85 0 85 -170 0 -170 0 0 -85z"></path></g></svg>