<svg xmlns="http://www.w3.org/2000/svg" width="512.000000pt" height="512.000000pt" viewBox="0 0 512.000000 512.000000" preserveAspectRatio="xMidYMid meet"><metadata>
Created by potrace 1.16, written by Peter Selinger 2001-2019
</metadata><g transform="translate(0.000000,512.000000) scale(0.100000,-0.100000)" fill="#000000" stroke="none"><path d="M1780 4240 l0 -880 75 0 75 0 0 805 0 805 75 0 75 0 0 -70 c0 -79 18 -126 67 -172 62 -59 47 -58 710 -58 570 0 610 2 648 19 83 38 125 111 125 216 l0 65 75 0 75 0 0 -805 0 -805 75 0 75 0 0 880 0 880 -224 0 -224 0 -3 -125 c-4 -114 -6 -126 -27 -147 l-23 -23 -574 0 -574 0 -23 23 c-21 21 -23 33 -27 147 l-3 125 -224 0 -224 0 0 -880z"></path><path d="M2703 4505 c-29 -8 -73 -25 -98 -37 l-44 -23 38 -65 c21 -37 44 -64 52 -63 8 1 40 12 73 23 70 25 178 28 249 6 104 -31 202 -118 254 -225 25 -51 28 -66 28 -166 0 -101 -2 -115 -29 -170 -59 -121 -187 -216 -311 -233 -134 -17 -250 22 -346 117 -80 80 -112 152 -117 261 -5 106 12 175 64 251 l36 53 -58 55 -57 55 -28 -33 c-78 -93 -119 -217 -119 -356 0 -166 48 -284 165 -400 115 -115 236 -165 400 -165 164 0 285 50 400 165 117 116 165 234 165 400 0 166 -48 284 -165 400 -76 77 -158 126 -250 150 -74 19 -232 19 -302 0z"></path><path d="M2780 3955 l0 -75 75 0 75 0 0 75 0 75 -75 0 -75 0 0 -75z"></path><path d="M1290 2510 l0 -710 80 0 80 0 0 635 0 635 940 0 940 0 0 75 0 75 -1020 0 -1020 0 0 -710z"></path><path d="M3480 3145 l0 -75 390 0 390 0 0 -685 0 -685 80 0 80 0 0 760 0 760 -470 0 -470 0 0 -75z"></path><path d="M0 2885 l0 -75 575 0 575 0 0 75 0 75 -575 0 -575 0 0 -75z"></path><path d="M4560 2885 l0 -75 280 0 280 0 0 75 0 75 -280 0 -280 0 0 -75z"></path><path d="M1580 2595 l0 -315 80 0 80 0 0 315 0 315 -80 0 -80 0 0 -315z"></path><path d="M1980 2595 l0 -315 80 0 80 0 0 315 0 315 -80 0 -80 0 0 -315z"></path><path d="M2380 2595 l0 -315 80 0 80 0 0 315 0 315 -80 0 -80 0 0 -315z"></path><path d="M2780 2595 l0 -315 75 0 75 0 0 315 0 315 -75 0 -75 0 0 -315z"></path><path d="M3170 2595 l0 -315 80 0 80 0 0 315 0 315 -80 0 -80 0 0 -315z"></path><path d="M3570 2595 l0 -315 80 0 80 0 0 315 0 315 -80 0 -80 0 0 -315z"></path><path d="M3970 2595 l0 -315 80 0 80 0 0 315 0 315 -80 0 -80 0 0 -315z"></path><path d="M392 2678 c-49 -11 -49 -11 -11 -112 l20 -54 37 10 c20 6 73 8 117 6 67 -3 90 -10 143 -37 75 -41 135 -103 170 -179 26 -55 27 -63 30 -274 l4 -218 79 0 79 0 0 203 c0 224 -10 288 -59 385 -60 119 -182 223 -309 262 -70 22 -221 26 -300 8z"></path><path d="M4560 2570 l0 -80 80 0 80 0 0 80 0 80 -80 0 -80 0 0 -80z"></path><path d="M4850 2570 l0 -80 80 0 80 0 0 80 0 80 -80 0 -80 0 0 -80z"></path><path d="M140 2524 c-61 -67 -105 -150 -125 -236 -22 -92 -21 -795 0 -887 46 -192 194 -340 393 -391 l42 -11 0 -499 0 -500 80 0 80 0 0 875 0 875 -80 0 -80 0 0 -290 c0 -331 7 -311 -92 -258 -70 37 -131 102 -167 178 l-26 55 0 405 c0 400 0 406 23 462 13 31 43 80 68 107 l46 51 -48 60 c-26 33 -50 60 -54 60 -5 0 -31 -25 -60 -56z"></path><path d="M4560 2270 l0 -80 80 0 80 0 0 80 0 80 -80 0 -80 0 0 -80z"></path><path d="M4850 2270 l0 -80 80 0 80 0 0 80 0 80 -80 0 -80 0 0 -80z"></path><path d="M1817 2096 c-73 -30 -119 -66 -163 -124 -36 -49 -74 -154 -74 -203 l0 -29 80 0 c77 0 80 1 80 23 0 44 53 130 98 162 40 27 51 30 122 30 71 0 82 -3 122 -30 28 -20 52 -49 71 -84 l27 -55 0 -513 0 -513 -125 0 -125 0 0 -75 0 -75 205 0 205 0 0 594 c0 567 -1 597 -20 657 -51 164 -186 259 -363 259 -63 0 -95 -6 -140 -24z"></path><path d="M2716 2095 c-32 -13 -63 -28 -68 -33 -8 -8 34 -80 73 -126 4 -4 28 0 53 9 32 12 64 16 106 13 80 -6 135 -43 173 -117 l27 -55 0 -513 0 -513 -220 0 -221 0 4 523 c2 287 7 533 11 547 7 23 2 27 -60 58 -37 18 -70 30 -74 25 -5 -4 -15 -32 -24 -62 -14 -47 -16 -135 -16 -648 l0 -593 380 0 380 0 0 594 c0 567 -1 597 -20 657 -51 164 -186 259 -363 259 -64 0 -95 -6 -141 -25z"></path><path d="M3606 2095 c-32 -13 -63 -28 -68 -33 -8 -8 34 -80 73 -126 4 -4 28 0 53 9 32 12 64 16 106 13 80 -6 135 -43 173 -117 l27 -55 0 -513 0 -513 -220 0 -221 0 4 523 c2 287 7 533 11 547 7 23 2 27 -60 58 -37 18 -70 30 -74 25 -5 -4 -15 -32 -24 -62 -14 -47 -16 -135 -16 -648 l0 -593 380 0 380 0 0 594 c0 567 -1 597 -20 657 -51 164 -186 259 -363 259 -64 0 -95 -6 -141 -25z"></path><path d="M4560 1365 l0 -685 80 0 80 0 0 685 0 685 -80 0 -80 0 0 -685z"></path><path d="M4850 1365 l0 -685 80 0 80 0 0 685 0 685 -80 0 -80 0 0 -685z"></path><path d="M1147 1649 c-46 -11 -77 -26 -77 -38 0 -5 13 -38 29 -74 l29 -65 44 15 c30 10 69 14 128 11 73 -3 94 -9 148 -38 74 -39 134 -103 171 -180 25 -54 26 -60 26 -255 0 -195 -1 -201 -26 -255 -36 -76 -97 -141 -167 -178 -97 -52 -92 -61 -92 163 l0 195 -80 0 -80 0 0 -195 c0 -224 5 -215 -92 -163 -70 37 -131 102 -167 178 -25 53 -26 61 -26 250 0 179 2 199 23 251 12 30 38 74 58 97 l36 42 -30 38 c-17 20 -41 47 -55 60 l-24 23 -40 -45 c-53 -61 -99 -149 -118 -227 -20 -88 -20 -380 0 -468 46 -192 194 -340 393 -391 l42 -11 0 -194 0 -195 80 0 80 0 0 195 0 194 43 11 c198 51 346 199 392 391 20 88 20 380 0 468 -44 185 -206 349 -385 390 -54 13 -210 12 -263 0z"></path><path d="M4260 1120 l0 -440 80 0 80 0 0 440 0 440 -80 0 -80 0 0 -440z"></path><path d="M0 685 l0 -75 155 0 155 0 0 75 0 75 -155 0 -155 0 0 -75z"></path></g></svg>